<svg xmlns="http://www.w3.org/2000/svg" viewBox="0 0 49.549 39.907">
    <defs>
        <style>.a{fill:#ef4c97;stroke:#fff;stroke-width:3px;}</style>
    </defs>
    <g transform="translate(-54.5 -175.849)">
        <g transform="translate(77.798 177.898) rotate(30)">
            <path class="a" d="M13.973,24.3l-.389-.32c-.738-.612-1.737-1.277-2.9-2.046C6.177,18.938,0,14.835,0,7.839A7.908,7.908,0,0,1,13.973,2.834a7.908,7.908,0,0,1,13.973,5c0,7-6.177,11.1-10.689,14.1-1.158.769-2.157,1.433-2.9,2.046Z" transform="translate(0 0)"/>
        </g>
        <g transform="translate(56 189.512)">
            <path class="a" d="M15.973,31.3l-.389-.32c-.738-.612-1.737-1.277-2.9-2.046C8.177,25.938,2,21.835,2,14.839A7.908,7.908,0,0,1,15.973,9.834a7.908,7.908,0,0,1,13.973,5.005c0,7-6.177,11.1-10.689,14.1-1.158.769-2.157,1.433-2.9,2.046Z" transform="translate(-2 -7)"/>
        </g>
    </g>
</svg>